<svg width="1200" height="800" viewBox="0 0 1200 800" fill="none" xmlns="http://www.w3.org/2000/svg">
  <defs>
    <linearGradient id="bg" x1="0" y1="0" x2="1" y2="1">
      <stop offset="0%" stop-color="#0A192F" />
      <stop offset="100%" stop-color="#132C4E" />
    </linearGradient>
    <linearGradient id="pulse" x1="0" y1="0" x2="1" y2="1">
      <stop offset="0%" stop-color="#36D1DC" />
      <stop offset="100%" stop-color="#5B86E5" />
    </linearGradient>
    <radialGradient id="glow" cx="50%" cy="50%" r="50%">
      <stop offset="0%" stop-color="#64FFDA" stop-opacity="0.6" />
      <stop offset="100%" stop-color="#64FFDA" stop-opacity="0" />
    </radialGradient>
    <filter id="shadow" x="-20%" y="-20%" width="140%" height="140%">
      <feDropShadow dx="0" dy="20" stdDeviation="40" flood-color="#0A192F" flood-opacity="0.45" />
    </filter>
  </defs>
  <rect width="1200" height="800" fill="url(#bg)" />
  <circle cx="600" cy="400" r="220" fill="url(#glow)" />
  <g filter="url(#shadow)">
    <path d="M200 420C260 280 420 260 520 360C620 460 780 440 840 300" stroke="#64FFDA" stroke-width="6" stroke-linecap="round" stroke-dasharray="12 18" opacity="0.6" />
    <path d="M220 480C310 580 480 560 600 440C720 320 880 340 980 460" stroke="url(#pulse)" stroke-width="8" stroke-linecap="round" stroke-linejoin="round" opacity="0.85" />
    <path d="M240 340C340 200 520 200 640 320C760 440 940 420 1020 260" stroke="#1B9FFF" stroke-width="4" stroke-linecap="round" stroke-dasharray="10 24" opacity="0.5" />
  </g>
  <g opacity="0.8">
    <rect x="320" y="200" width="180" height="120" rx="24" fill="#11263E" stroke="#1F3D60" stroke-width="2" />
    <rect x="320" y="200" width="180" height="120" rx="24" fill="url(#glow)" opacity="0.18" />
    <path d="M360 240L380 260L420 220" stroke="#64FFDA" stroke-width="8" stroke-linecap="round" stroke-linejoin="round" />
    <path d="M360 280H460" stroke="#27456B" stroke-width="6" stroke-linecap="round" />
    <path d="M360 304H440" stroke="#27456B" stroke-width="6" stroke-linecap="round" />
  </g>
  <g opacity="0.85">
    <rect x="720" y="500" width="200" height="140" rx="28" fill="#11263E" stroke="#1F3D60" stroke-width="2" />
    <rect x="720" y="500" width="200" height="140" rx="28" fill="url(#glow)" opacity="0.16" />
    <circle cx="780" cy="560" r="26" fill="#0A192F" stroke="#64FFDA" stroke-width="6" />
    <path d="M772 560L778 566L788 550" stroke="#64FFDA" stroke-width="6" stroke-linecap="round" stroke-linejoin="round" />
    <path d="M820 540H880" stroke="#27456B" stroke-width="8" stroke-linecap="round" />
    <path d="M820 572H880" stroke="#27456B" stroke-width="8" stroke-linecap="round" />
  </g>
  <g opacity="0.7">
    <rect x="520" y="320" width="160" height="160" rx="32" fill="#0E2038" stroke="#1F3D60" stroke-width="2" />
    <rect x="520" y="320" width="160" height="160" rx="32" fill="url(#glow)" opacity="0.12" />
    <circle cx="600" cy="360" r="18" fill="#0A192F" stroke="#64FFDA" stroke-width="6" />
    <path d="M560 420H640" stroke="#27456B" stroke-width="10" stroke-linecap="round" />
    <path d="M560 460H620" stroke="#27456B" stroke-width="10" stroke-linecap="round" />
  </g>
  <g>
    <circle cx="240" cy="560" r="14" fill="#64FFDA" opacity="0.45" />
    <circle cx="960" cy="220" r="12" fill="#64FFDA" opacity="0.35" />
    <circle cx="1040" cy="540" r="16" fill="#36D1DC" opacity="0.3" />
    <circle cx="420" cy="620" r="10" fill="#36D1DC" opacity="0.4" />
    <circle cx="580" cy="200" r="12" fill="#64FFDA" opacity="0.4" />
    <circle cx="860" cy="360" r="18" fill="#36D1DC" opacity="0.38" />
  </g>
  <g opacity="0.7" stroke="#64FFDA" stroke-width="3" stroke-linecap="round">
    <path d="M280 240C330 240 350 260 360 280" />
    <path d="M640 600C700 580 740 540 760 500" />
    <path d="M480 520C520 500 560 500 600 520" />
  </g>
</svg>
